<mxfile host="Electron" modified="2024-05-20T00:19:16.671Z" agent="Mozilla/5.0 (Windows NT 10.0; Win64; x64) AppleWebKit/537.36 (KHTML, like Gecko) draw.io/23.0.2 Chrome/120.0.6099.109 Electron/28.1.0 Safari/537.36" etag="3NWTuz_hJSTt2OGv8Zvf" version="23.0.2" type="device">
  <diagram id="C5RBs43oDa-KdzZeNtuy" name="Page-1">
    <mxGraphModel dx="600" dy="359" grid="1" gridSize="10" guides="1" tooltips="1" connect="1" arrows="1" fold="1" page="1" pageScale="1" pageWidth="827" pageHeight="1169" math="0" shadow="0">
      <root>
        <mxCell id="WIyWlLk6GJQsqaUBKTNV-0" />
        <mxCell id="WIyWlLk6GJQsqaUBKTNV-1" parent="WIyWlLk6GJQsqaUBKTNV-0" />
        <mxCell id="RdWcsup0NTSAOdExEhxY-5" value="" style="edgeStyle=orthogonalEdgeStyle;rounded=0;orthogonalLoop=1;jettySize=auto;html=1;endArrow=none;endFill=0;" edge="1" parent="WIyWlLk6GJQsqaUBKTNV-1" source="RdWcsup0NTSAOdExEhxY-1" target="RdWcsup0NTSAOdExEhxY-4">
          <mxGeometry relative="1" as="geometry" />
        </mxCell>
        <mxCell id="RdWcsup0NTSAOdExEhxY-1" value="Начало" style="strokeWidth=1;html=1;shape=mxgraph.flowchart.terminator;whiteSpace=wrap;fontFamily=Times New Roman;fontSize=12;" vertex="1" parent="WIyWlLk6GJQsqaUBKTNV-1">
          <mxGeometry x="240" y="80" width="110" height="40" as="geometry" />
        </mxCell>
        <mxCell id="RdWcsup0NTSAOdExEhxY-2" value="Конец" style="strokeWidth=1;html=1;shape=mxgraph.flowchart.terminator;whiteSpace=wrap;fontFamily=Times New Roman;fontSize=12;" vertex="1" parent="WIyWlLk6GJQsqaUBKTNV-1">
          <mxGeometry x="245" y="370" width="100" height="40" as="geometry" />
        </mxCell>
        <mxCell id="RdWcsup0NTSAOdExEhxY-7" value="" style="edgeStyle=orthogonalEdgeStyle;rounded=0;orthogonalLoop=1;jettySize=auto;html=1;endArrow=none;endFill=0;" edge="1" parent="WIyWlLk6GJQsqaUBKTNV-1" source="RdWcsup0NTSAOdExEhxY-4" target="RdWcsup0NTSAOdExEhxY-6">
          <mxGeometry relative="1" as="geometry" />
        </mxCell>
        <mxCell id="RdWcsup0NTSAOdExEhxY-4" value="Найти максимальный Id, max_id" style="shape=process;whiteSpace=wrap;html=1;backgroundOutline=1;fontFamily=Times New Roman;" vertex="1" parent="WIyWlLk6GJQsqaUBKTNV-1">
          <mxGeometry x="240" y="140" width="110" height="40" as="geometry" />
        </mxCell>
        <mxCell id="RdWcsup0NTSAOdExEhxY-9" value="" style="edgeStyle=orthogonalEdgeStyle;rounded=0;orthogonalLoop=1;jettySize=auto;html=1;endArrow=none;endFill=0;" edge="1" parent="WIyWlLk6GJQsqaUBKTNV-1" source="RdWcsup0NTSAOdExEhxY-6" target="RdWcsup0NTSAOdExEhxY-8">
          <mxGeometry relative="1" as="geometry" />
        </mxCell>
        <mxCell id="RdWcsup0NTSAOdExEhxY-6" value="max_id = max_id + 1" style="rounded=0;whiteSpace=wrap;html=1;fontFamily=Times New Roman;" vertex="1" parent="WIyWlLk6GJQsqaUBKTNV-1">
          <mxGeometry x="240" y="200" width="110" height="40" as="geometry" />
        </mxCell>
        <mxCell id="RdWcsup0NTSAOdExEhxY-11" style="edgeStyle=orthogonalEdgeStyle;rounded=0;orthogonalLoop=1;jettySize=auto;html=1;exitX=0;exitY=0.5;exitDx=0;exitDy=0;entryX=0.5;entryY=0;entryDx=0;entryDy=0;" edge="1" parent="WIyWlLk6GJQsqaUBKTNV-1" source="RdWcsup0NTSAOdExEhxY-8" target="RdWcsup0NTSAOdExEhxY-10">
          <mxGeometry relative="1" as="geometry" />
        </mxCell>
        <mxCell id="RdWcsup0NTSAOdExEhxY-8" value="max_id == null" style="rhombus;whiteSpace=wrap;html=1;fontFamily=Times New Roman;" vertex="1" parent="WIyWlLk6GJQsqaUBKTNV-1">
          <mxGeometry x="240" y="260" width="110" height="40" as="geometry" />
        </mxCell>
        <mxCell id="RdWcsup0NTSAOdExEhxY-10" value="max_id = 1" style="rounded=0;whiteSpace=wrap;html=1;fontFamily=Times New Roman;" vertex="1" parent="WIyWlLk6GJQsqaUBKTNV-1">
          <mxGeometry x="160" y="300" width="110" height="40" as="geometry" />
        </mxCell>
        <mxCell id="RdWcsup0NTSAOdExEhxY-12" value="Да" style="text;html=1;strokeColor=none;fillColor=none;align=center;verticalAlign=middle;whiteSpace=wrap;rounded=0;fontFamily=Times New Roman;" vertex="1" parent="WIyWlLk6GJQsqaUBKTNV-1">
          <mxGeometry x="200" y="260" width="45" height="20" as="geometry" />
        </mxCell>
        <mxCell id="RdWcsup0NTSAOdExEhxY-13" style="edgeStyle=orthogonalEdgeStyle;rounded=0;orthogonalLoop=1;jettySize=auto;html=1;exitX=0.5;exitY=1;exitDx=0;exitDy=0;entryX=0.5;entryY=0;entryDx=0;entryDy=0;entryPerimeter=0;endArrow=none;endFill=0;" edge="1" parent="WIyWlLk6GJQsqaUBKTNV-1" source="RdWcsup0NTSAOdExEhxY-10" target="RdWcsup0NTSAOdExEhxY-2">
          <mxGeometry relative="1" as="geometry">
            <Array as="points">
              <mxPoint x="215" y="350" />
              <mxPoint x="295" y="350" />
            </Array>
          </mxGeometry>
        </mxCell>
        <mxCell id="RdWcsup0NTSAOdExEhxY-14" style="edgeStyle=orthogonalEdgeStyle;rounded=0;orthogonalLoop=1;jettySize=auto;html=1;exitX=1;exitY=0.5;exitDx=0;exitDy=0;entryX=0.5;entryY=0;entryDx=0;entryDy=0;entryPerimeter=0;endArrow=none;endFill=0;" edge="1" parent="WIyWlLk6GJQsqaUBKTNV-1" source="RdWcsup0NTSAOdExEhxY-8" target="RdWcsup0NTSAOdExEhxY-2">
          <mxGeometry relative="1" as="geometry">
            <Array as="points">
              <mxPoint x="370" y="280" />
              <mxPoint x="370" y="350" />
              <mxPoint x="295" y="350" />
            </Array>
          </mxGeometry>
        </mxCell>
      </root>
    </mxGraphModel>
  </diagram>
</mxfile>
